<svg width="414" height="230" viewBox="0 0 414 230" fill="none" xmlns="http://www.w3.org/2000/svg">
<path d="M-19.9657 -137.048C-191.382 -183.824 -282.743 -373.939 -469.836 -298.267C-507.671 -282.964 -507.688 -249.634 -478.497 -221.111L-75.912 172.259C-25.201 221.81 53.2119 228.84 112.01 189.107L441.133 -33.2975C536.941 -98.039 527.358 -244.293 418.416 -282.31C397.066 -289.761 378.115 -295.378 363.706 -297.967C200.586 -327.276 136.934 -94.2342 -19.9657 -137.048Z" fill="#E8F54A"/>
<path d="M565.213 275.427C604.065 266.516 604.926 258.703 604.926 258.703L248.604 -216.079L-223 23.8667C-223 23.8667 -76.1604 134.144 -21.2891 156.165C92.3381 201.766 146.273 33.4919 254.993 88.483C373.772 148.562 430.596 306.302 565.213 275.427Z" fill="#004852"/>
</svg>
